Green.Zone.2010.1080p.BluRay.mkv
********************************

TiTLE......  Green Zone
YEAR.......  2010
GENRE......  Action | Drama | Thriller | War
iMDB RATE..  User Rating: 7.2/10 (11,834 votes)
iMDB URL...  http://www.imdb.com/title/tt0947810/
*************************************************

Video
Duration                         : 1h 54mn
Overall bit rate                 : 8 604 Kbps
Width                            : 1 920 pixels
Height                           : 816 pixels
Display aspect ratio             : 2.35:1
Frame rate                       : 23.976 fps
Stream size                      : 5.54 GiB (80%)

Audio
Format                           : DTS
Bit rate                         : 1 510 Kbps
Channel(s)                       : 6 channels
Channel positions                : Front: L C R, Surround: L R, LFE
Sampling rate                    : 48.0 KHz
Resolution                       : 24 bits
Stream size                      : 1.21 GiB (18%)
Language                         : English

Subtitles: English, French
**************************


